<?xml version="1.0" encoding="UTF-8" standalone="no"?><svg xmlns="http://www.w3.org/2000/svg" xmlns:xlink="http://www.w3.org/1999/xlink" contentScriptType="application/ecmascript" contentStyleType="text/css" height="672px" preserveAspectRatio="none" style="width:1204px;height:672px;" version="1.1" viewBox="0 0 1204 672" width="1204px" zoomAndPan="magnify"><defs><filter height="300%" id="f18u6go471cc7g" width="300%" x="-1" y="-1"><feGaussianBlur result="blurOut" stdDeviation="2.0"/><feColorMatrix in="blurOut" result="blurOut2" type="matrix" values="0 0 0 0 0 0 0 0 0 0 0 0 0 0 0 0 0 0 .4 0"/><feOffset dx="4.0" dy="4.0" in="blurOut2" result="blurOut3"/><feBlend in="SourceGraphic" in2="blurOut3" mode="normal"/></filter></defs><g><!--MD5=[3592f0b3ec2dcf5eda3fe677340830a6]
class Jouable--><rect fill="#FEFECE" filter="url(#f18u6go471cc7g)" height="92.9457" id="Jouable" style="stroke: #A80036; stroke-width: 1.5;" width="138" x="523.5" y="8"/><ellipse cx="567.75" cy="24" fill="#ADD1B2" rx="11" ry="11" style="stroke: #A80036; stroke-width: 1.0;"/><path d="M570.7188,29.6406 Q570.1406,29.9375 569.5,30.0781 Q568.8594,30.2344 568.1563,30.2344 Q565.6563,30.2344 564.3281,28.5938 Q563.0156,26.9375 563.0156,23.8125 Q563.0156,20.6875 564.3281,19.0313 Q565.6563,17.375 568.1563,17.375 Q568.8594,17.375 569.5,17.5313 Q570.1563,17.6875 570.7188,17.9844 L570.7188,20.7031 Q570.0938,20.125 569.5,19.8594 Q568.9063,19.5781 568.2813,19.5781 Q566.9375,19.5781 566.25,20.6563 Q565.5625,21.7188 565.5625,23.8125 Q565.5625,25.9063 566.25,26.9844 Q566.9375,28.0469 568.2813,28.0469 Q568.9063,28.0469 569.5,27.7813 Q570.0938,27.5 570.7188,26.9219 L570.7188,29.6406 Z "/><text fill="#000000" font-family="sans-serif" font-size="12" lengthAdjust="spacingAndGlyphs" textLength="41" x="588.25" y="28.656">Jouable</text><line style="stroke: #A80036; stroke-width: 1.5;" x1="524.5" x2="660.5" y1="40" y2="40"/><line style="stroke: #A80036; stroke-width: 1.5;" x1="524.5" x2="660.5" y1="48" y2="48"/><ellipse cx="534.5" cy="59" fill="#84BE84" rx="3" ry="3" style="stroke: #038048; stroke-width: 1.0;"/><text fill="#000000" font-family="sans-serif" font-size="11" lengthAdjust="spacingAndGlyphs" textLength="102" x="543.5" y="63.7589">boolean movment()</text><ellipse cx="534.5" cy="73.9819" fill="#84BE84" rx="3" ry="3" style="stroke: #038048; stroke-width: 1.0;"/><text fill="#000000" font-family="sans-serif" font-size="11" lengthAdjust="spacingAndGlyphs" textLength="112" x="543.5" y="78.7408">boolean canCapture()</text><ellipse cx="534.5" cy="88.9638" fill="#84BE84" rx="3" ry="3" style="stroke: #038048; stroke-width: 1.0;"/><text fill="#000000" font-family="sans-serif" font-size="11" lengthAdjust="spacingAndGlyphs" textLength="83" x="543.5" y="93.7227">boolean isActif()</text><!--MD5=[b4efb0c1763c6ac43c39e00406976915]
class Affichable--><rect fill="#FEFECE" filter="url(#f18u6go471cc7g)" height="48" id="Affichable" style="stroke: #A80036; stroke-width: 1.5;" width="85" x="790" y="30.5"/><ellipse cx="805" cy="46.5" fill="#B4A7E5" rx="11" ry="11" style="stroke: #A80036; stroke-width: 1.0;"/><path d="M800.9219,42.2656 L800.9219,40.1094 L808.3125,40.1094 L808.3125,42.2656 L805.8438,42.2656 L805.8438,50.3438 L808.3125,50.3438 L808.3125,52.5 L800.9219,52.5 L800.9219,50.3438 L803.3906,50.3438 L803.3906,42.2656 L800.9219,42.2656 Z "/><text fill="#000000" font-family="sans-serif" font-size="12" font-style="italic" lengthAdjust="spacingAndGlyphs" textLength="53" x="819" y="51.156">Affichable</text><line style="stroke: #A80036; stroke-width: 1.5;" x1="791" x2="874" y1="62.5" y2="62.5"/><line style="stroke: #A80036; stroke-width: 1.5;" x1="791" x2="874" y1="70.5" y2="70.5"/><!--MD5=[e05bacf3ff4416a0580578814d41bbf6]
class Piece--><rect fill="#FEFECE" filter="url(#f18u6go471cc7g)" height="287.7102" id="Piece" style="stroke: #A80036; stroke-width: 1.5;" width="216" x="484.5" y="161"/><ellipse cx="573.25" cy="177" fill="#ADD1B2" rx="11" ry="11" style="stroke: #A80036; stroke-width: 1.0;"/><path d="M576.2188,182.6406 Q575.6406,182.9375 575,183.0781 Q574.3594,183.2344 573.6563,183.2344 Q571.1563,183.2344 569.8281,181.5938 Q568.5156,179.9375 568.5156,176.8125 Q568.5156,173.6875 569.8281,172.0313 Q571.1563,170.375 573.6563,170.375 Q574.3594,170.375 575,170.5313 Q575.6563,170.6875 576.2188,170.9844 L576.2188,173.7031 Q575.5938,173.125 575,172.8594 Q574.4063,172.5781 573.7813,172.5781 Q572.4375,172.5781 571.75,173.6563 Q571.0625,174.7188 571.0625,176.8125 Q571.0625,178.9063 571.75,179.9844 Q572.4375,181.0469 573.7813,181.0469 Q574.4063,181.0469 575,180.7813 Q575.5938,180.5 576.2188,179.9219 L576.2188,182.6406 Z "/><text fill="#000000" font-family="sans-serif" font-size="12" lengthAdjust="spacingAndGlyphs" textLength="30" x="593.75" y="181.656">Piece</text><line style="stroke: #A80036; stroke-width: 1.5;" x1="485.5" x2="699.5" y1="193" y2="193"/><rect fill="none" height="6" style="stroke: #C82930; stroke-width: 1.0;" width="6" x="492.5" y="201"/><text fill="#000000" font-family="sans-serif" font-size="11" lengthAdjust="spacingAndGlyphs" textLength="58" x="504.5" y="208.7589">String type</text><rect fill="none" height="6" style="stroke: #C82930; stroke-width: 1.0;" width="6" x="492.5" y="215.9819"/><text fill="#000000" font-family="sans-serif" font-size="11" lengthAdjust="spacingAndGlyphs" textLength="83" x="504.5" y="223.7408">List&lt;int&gt; avance</text><rect fill="none" height="6" style="stroke: #C82930; stroke-width: 1.0;" width="6" x="492.5" y="230.9638"/><text fill="#000000" font-family="sans-serif" font-size="11" lengthAdjust="spacingAndGlyphs" textLength="77" x="504.5" y="238.7227">String Couleur</text><rect fill="none" height="6" style="stroke: #C82930; stroke-width: 1.0;" width="6" x="492.5" y="245.9457"/><text fill="#000000" font-family="sans-serif" font-size="11" lengthAdjust="spacingAndGlyphs" textLength="108" x="504.5" y="253.7046">List&lt;String&gt; position</text><rect fill="none" height="6" style="stroke: #C82930; stroke-width: 1.0;" width="6" x="492.5" y="260.9276"/><text fill="#000000" font-family="sans-serif" font-size="11" lengthAdjust="spacingAndGlyphs" textLength="85" x="504.5" y="268.6865">boolean jouable</text><line style="stroke: #A80036; stroke-width: 1.5;" x1="485.5" x2="699.5" y1="275.9094" y2="275.9094"/><ellipse cx="495.5" cy="286.9094" fill="#84BE84" rx="3" ry="3" style="stroke: #038048; stroke-width: 1.0;"/><text fill="#000000" font-family="sans-serif" font-size="11" lengthAdjust="spacingAndGlyphs" textLength="33" x="504.5" y="291.6684">Piece()</text><ellipse cx="495.5" cy="301.8913" fill="#84BE84" rx="3" ry="3" style="stroke: #038048; stroke-width: 1.0;"/><text fill="#000000" font-family="sans-serif" font-size="11" lengthAdjust="spacingAndGlyphs" textLength="100" x="504.5" y="306.6502">String getCouleur()</text><ellipse cx="495.5" cy="316.8732" fill="#84BE84" rx="3" ry="3" style="stroke: #038048; stroke-width: 1.0;"/><text fill="#000000" font-family="sans-serif" font-size="11" lengthAdjust="spacingAndGlyphs" textLength="83" x="504.5" y="321.6321">String getType()</text><ellipse cx="495.5" cy="331.8551" fill="#84BE84" rx="3" ry="3" style="stroke: #038048; stroke-width: 1.0;"/><text fill="#000000" font-family="sans-serif" font-size="11" lengthAdjust="spacingAndGlyphs" textLength="101" x="504.5" y="336.614">String getPosition()</text><ellipse cx="495.5" cy="346.837" fill="#84BE84" rx="3" ry="3" style="stroke: #038048; stroke-width: 1.0;"/><text fill="#000000" font-family="sans-serif" font-size="11" lengthAdjust="spacingAndGlyphs" textLength="99" x="504.5" y="351.5959">boolean isJouable()</text><ellipse cx="495.5" cy="361.8189" fill="#84BE84" rx="3" ry="3" style="stroke: #038048; stroke-width: 1.0;"/><text fill="#000000" font-family="sans-serif" font-size="11" lengthAdjust="spacingAndGlyphs" textLength="148" x="504.5" y="366.5778">setPosition(List&lt;String&gt; pos)</text><ellipse cx="495.5" cy="376.8008" fill="#84BE84" rx="3" ry="3" style="stroke: #038048; stroke-width: 1.0;"/><text fill="#000000" font-family="sans-serif" font-size="11" lengthAdjust="spacingAndGlyphs" textLength="158" x="504.5" y="381.5597">setJouable(boolean isJouable_)</text><ellipse cx="495.5" cy="391.7827" fill="#84BE84" rx="3" ry="3" style="stroke: #038048; stroke-width: 1.0;"/><text fill="#000000" font-family="sans-serif" font-size="11" lengthAdjust="spacingAndGlyphs" textLength="147" x="504.5" y="396.5416">abstract boolean movment()</text><ellipse cx="495.5" cy="406.7645" fill="#84BE84" rx="3" ry="3" style="stroke: #038048; stroke-width: 1.0;"/><text fill="#000000" font-family="sans-serif" font-size="11" lengthAdjust="spacingAndGlyphs" textLength="190" x="504.5" y="411.5235">abstract boolean isCapturePossible()</text><ellipse cx="495.5" cy="421.7464" fill="#84BE84" rx="3" ry="3" style="stroke: #038048; stroke-width: 1.0;"/><text fill="#000000" font-family="sans-serif" font-size="11" lengthAdjust="spacingAndGlyphs" textLength="66" x="504.5" y="426.5053">canCapture()</text><ellipse cx="495.5" cy="436.7283" fill="#84BE84" rx="3" ry="3" style="stroke: #038048; stroke-width: 1.0;"/><text fill="#000000" font-family="sans-serif" font-size="11" lengthAdjust="spacingAndGlyphs" textLength="37" x="504.5" y="441.4872">isActif()</text><!--MD5=[e8dcfdde5c6ce5239f59acd294696d72]
class Case--><rect fill="#FEFECE" filter="url(#f18u6go471cc7g)" height="48" id="Case" style="stroke: #A80036; stroke-width: 1.5;" width="57" x="910" y="30.5"/><ellipse cx="925" cy="46.5" fill="#A9DCDF" rx="11" ry="11" style="stroke: #A80036; stroke-width: 1.0;"/><path d="M925.1094,41.8438 L923.9531,46.9219 L926.2813,46.9219 L925.1094,41.8438 Z M923.625,39.6094 L926.6094,39.6094 L929.9688,52 L927.5156,52 L926.75,48.9375 L923.4688,48.9375 L922.7188,52 L920.2813,52 L923.625,39.6094 Z "/><text fill="#000000" font-family="sans-serif" font-size="12" font-style="italic" lengthAdjust="spacingAndGlyphs" textLength="25" x="939" y="51.156">Case</text><line style="stroke: #A80036; stroke-width: 1.5;" x1="911" x2="966" y1="62.5" y2="62.5"/><line style="stroke: #A80036; stroke-width: 1.5;" x1="911" x2="966" y1="70.5" y2="70.5"/><!--MD5=[5cd3505dd71ee79e2b669d1b35265d2f]
class Echiquier--><rect fill="#FEFECE" filter="url(#f18u6go471cc7g)" height="48" id="Echiquier" style="stroke: #A80036; stroke-width: 1.5;" width="84" x="735.5" y="281"/><ellipse cx="750.5" cy="297" fill="#ADD1B2" rx="11" ry="11" style="stroke: #A80036; stroke-width: 1.0;"/><path d="M753.4688,302.6406 Q752.8906,302.9375 752.25,303.0781 Q751.6094,303.2344 750.9063,303.2344 Q748.4063,303.2344 747.0781,301.5938 Q745.7656,299.9375 745.7656,296.8125 Q745.7656,293.6875 747.0781,292.0313 Q748.4063,290.375 750.9063,290.375 Q751.6094,290.375 752.25,290.5313 Q752.9063,290.6875 753.4688,290.9844 L753.4688,293.7031 Q752.8438,293.125 752.25,292.8594 Q751.6563,292.5781 751.0313,292.5781 Q749.6875,292.5781 749,293.6563 Q748.3125,294.7188 748.3125,296.8125 Q748.3125,298.9063 749,299.9844 Q749.6875,301.0469 751.0313,301.0469 Q751.6563,301.0469 752.25,300.7813 Q752.8438,300.5 753.4688,299.9219 L753.4688,302.6406 Z "/><text fill="#000000" font-family="sans-serif" font-size="12" lengthAdjust="spacingAndGlyphs" textLength="52" x="764.5" y="301.656">Echiquier</text><line style="stroke: #A80036; stroke-width: 1.5;" x1="736.5" x2="818.5" y1="313" y2="313"/><line style="stroke: #A80036; stroke-width: 1.5;" x1="736.5" x2="818.5" y1="321" y2="321"/><!--MD5=[f35b8d93951ba498799a84be5600c0ca]
class Joueur--><rect fill="#FEFECE" filter="url(#f18u6go471cc7g)" height="48" id="Joueur" style="stroke: #A80036; stroke-width: 1.5;" width="68" x="854.5" y="281"/><ellipse cx="869.5" cy="297" fill="#ADD1B2" rx="11" ry="11" style="stroke: #A80036; stroke-width: 1.0;"/><path d="M872.4688,302.6406 Q871.8906,302.9375 871.25,303.0781 Q870.6094,303.2344 869.9063,303.2344 Q867.4063,303.2344 866.0781,301.5938 Q864.7656,299.9375 864.7656,296.8125 Q864.7656,293.6875 866.0781,292.0313 Q867.4063,290.375 869.9063,290.375 Q870.6094,290.375 871.25,290.5313 Q871.9063,290.6875 872.4688,290.9844 L872.4688,293.7031 Q871.8438,293.125 871.25,292.8594 Q870.6563,292.5781 870.0313,292.5781 Q868.6875,292.5781 868,293.6563 Q867.3125,294.7188 867.3125,296.8125 Q867.3125,298.9063 868,299.9844 Q868.6875,301.0469 870.0313,301.0469 Q870.6563,301.0469 871.25,300.7813 Q871.8438,300.5 872.4688,299.9219 L872.4688,302.6406 Z "/><text fill="#000000" font-family="sans-serif" font-size="12" lengthAdjust="spacingAndGlyphs" textLength="36" x="883.5" y="301.656">Joueur</text><line style="stroke: #A80036; stroke-width: 1.5;" x1="855.5" x2="921.5" y1="313" y2="313"/><line style="stroke: #A80036; stroke-width: 1.5;" x1="855.5" x2="921.5" y1="321" y2="321"/><!--MD5=[af29ca247b3a3642f0fb478cea99ef78]
class Pawn--><rect fill="#FEFECE" filter="url(#f18u6go471cc7g)" height="152.8732" id="Pawn" style="stroke: #A80036; stroke-width: 1.5;" width="157" x="6" y="509"/><ellipse cx="65.25" cy="525" fill="#ADD1B2" rx="11" ry="11" style="stroke: #A80036; stroke-width: 1.0;"/><path d="M68.2188,530.6406 Q67.6406,530.9375 67,531.0781 Q66.3594,531.2344 65.6563,531.2344 Q63.1563,531.2344 61.8281,529.5938 Q60.5156,527.9375 60.5156,524.8125 Q60.5156,521.6875 61.8281,520.0313 Q63.1563,518.375 65.6563,518.375 Q66.3594,518.375 67,518.5313 Q67.6563,518.6875 68.2188,518.9844 L68.2188,521.7031 Q67.5938,521.125 67,520.8594 Q66.4063,520.5781 65.7813,520.5781 Q64.4375,520.5781 63.75,521.6563 Q63.0625,522.7188 63.0625,524.8125 Q63.0625,526.9063 63.75,527.9844 Q64.4375,529.0469 65.7813,529.0469 Q66.4063,529.0469 67,528.7813 Q67.5938,528.5 68.2188,527.9219 L68.2188,530.6406 Z "/><text fill="#000000" font-family="sans-serif" font-size="12" lengthAdjust="spacingAndGlyphs" textLength="30" x="85.75" y="529.656">Pawn</text><line style="stroke: #A80036; stroke-width: 1.5;" x1="7" x2="162" y1="541" y2="541"/><rect fill="none" height="6" style="stroke: #C82930; stroke-width: 1.0;" width="6" x="14" y="549"/><text fill="#000000" font-family="sans-serif" font-size="11" lengthAdjust="spacingAndGlyphs" textLength="124" x="26" y="556.7589">boolean firstMouvment</text><rect fill="none" height="6" style="stroke: #C82930; stroke-width: 1.0;" width="6" x="14" y="563.9819"/><text fill="#000000" font-family="sans-serif" font-size="11" lengthAdjust="spacingAndGlyphs" textLength="103" x="26" y="571.7408">boolean promotion</text><line style="stroke: #A80036; stroke-width: 1.5;" x1="7" x2="162" y1="578.9638" y2="578.9638"/><ellipse cx="17" cy="589.9638" fill="#84BE84" rx="3" ry="3" style="stroke: #038048; stroke-width: 1.0;"/><text fill="#000000" font-family="sans-serif" font-size="11" lengthAdjust="spacingAndGlyphs" textLength="30" x="26" y="594.7227">Pion()</text><ellipse cx="17" cy="604.9457" fill="#84BE84" rx="3" ry="3" style="stroke: #038048; stroke-width: 1.0;"/><text fill="#000000" font-family="sans-serif" font-size="11" lengthAdjust="spacingAndGlyphs" textLength="102" x="26" y="609.7046">boolean movment()</text><ellipse cx="17" cy="619.9276" fill="#84BE84" rx="3" ry="3" style="stroke: #038048; stroke-width: 1.0;"/><text fill="#000000" font-family="sans-serif" font-size="11" lengthAdjust="spacingAndGlyphs" textLength="99" x="26" y="624.6865">isCapturePossible()</text><ellipse cx="17" cy="634.9094" fill="#84BE84" rx="3" ry="3" style="stroke: #038048; stroke-width: 1.0;"/><text fill="#000000" font-family="sans-serif" font-size="11" lengthAdjust="spacingAndGlyphs" textLength="63" x="26" y="639.6684">promotion()</text><ellipse cx="17" cy="649.8913" fill="#84BE84" rx="3" ry="3" style="stroke: #038048; stroke-width: 1.0;"/><text fill="#000000" font-family="sans-serif" font-size="11" lengthAdjust="spacingAndGlyphs" textLength="131" x="26" y="654.6502">boolean priseEnPassant()</text><!--MD5=[6bd8cd731001ea389c78559e5d225136]
class Rook--><rect fill="#FEFECE" filter="url(#f18u6go471cc7g)" height="92.9457" id="Rook" style="stroke: #A80036; stroke-width: 1.5;" width="171" x="198" y="539"/><ellipse cx="265.75" cy="555" fill="#ADD1B2" rx="11" ry="11" style="stroke: #A80036; stroke-width: 1.0;"/><path d="M268.7188,560.6406 Q268.1406,560.9375 267.5,561.0781 Q266.8594,561.2344 266.1563,561.2344 Q263.6563,561.2344 262.3281,559.5938 Q261.0156,557.9375 261.0156,554.8125 Q261.0156,551.6875 262.3281,550.0313 Q263.6563,548.375 266.1563,548.375 Q266.8594,548.375 267.5,548.5313 Q268.1563,548.6875 268.7188,548.9844 L268.7188,551.7031 Q268.0938,551.125 267.5,550.8594 Q266.9063,550.5781 266.2813,550.5781 Q264.9375,550.5781 264.25,551.6563 Q263.5625,552.7188 263.5625,554.8125 Q263.5625,556.9063 264.25,557.9844 Q264.9375,559.0469 266.2813,559.0469 Q266.9063,559.0469 267.5,558.7813 Q268.0938,558.5 268.7188,557.9219 L268.7188,560.6406 Z "/><text fill="#000000" font-family="sans-serif" font-size="12" lengthAdjust="spacingAndGlyphs" textLength="27" x="286.25" y="559.656">Rook</text><line style="stroke: #A80036; stroke-width: 1.5;" x1="199" x2="368" y1="571" y2="571"/><line style="stroke: #A80036; stroke-width: 1.5;" x1="199" x2="368" y1="579" y2="579"/><ellipse cx="209" cy="590" fill="#84BE84" rx="3" ry="3" style="stroke: #038048; stroke-width: 1.0;"/><text fill="#000000" font-family="sans-serif" font-size="11" lengthAdjust="spacingAndGlyphs" textLength="33" x="218" y="594.7589">Rook()</text><ellipse cx="209" cy="604.9819" fill="#84BE84" rx="3" ry="3" style="stroke: #038048; stroke-width: 1.0;"/><text fill="#000000" font-family="sans-serif" font-size="11" lengthAdjust="spacingAndGlyphs" textLength="145" x="218" y="609.7408">boolean isCapturePossible()</text><ellipse cx="209" cy="619.9638" fill="#84BE84" rx="3" ry="3" style="stroke: #038048; stroke-width: 1.0;"/><text fill="#000000" font-family="sans-serif" font-size="11" lengthAdjust="spacingAndGlyphs" textLength="102" x="218" y="624.7227">boolean movment()</text><!--MD5=[f12c1f668f765232aff110b8f6a6681d]
class Knight--><rect fill="#FEFECE" filter="url(#f18u6go471cc7g)" height="92.9457" id="Knight" style="stroke: #A80036; stroke-width: 1.5;" width="171" x="404" y="539"/><ellipse cx="467.75" cy="555" fill="#ADD1B2" rx="11" ry="11" style="stroke: #A80036; stroke-width: 1.0;"/><path d="M470.7188,560.6406 Q470.1406,560.9375 469.5,561.0781 Q468.8594,561.2344 468.1563,561.2344 Q465.6563,561.2344 464.3281,559.5938 Q463.0156,557.9375 463.0156,554.8125 Q463.0156,551.6875 464.3281,550.0313 Q465.6563,548.375 468.1563,548.375 Q468.8594,548.375 469.5,548.5313 Q470.1563,548.6875 470.7188,548.9844 L470.7188,551.7031 Q470.0938,551.125 469.5,550.8594 Q468.9063,550.5781 468.2813,550.5781 Q466.9375,550.5781 466.25,551.6563 Q465.5625,552.7188 465.5625,554.8125 Q465.5625,556.9063 466.25,557.9844 Q466.9375,559.0469 468.2813,559.0469 Q468.9063,559.0469 469.5,558.7813 Q470.0938,558.5 470.7188,557.9219 L470.7188,560.6406 Z "/><text fill="#000000" font-family="sans-serif" font-size="12" lengthAdjust="spacingAndGlyphs" textLength="35" x="488.25" y="559.656">Knight</text><line style="stroke: #A80036; stroke-width: 1.5;" x1="405" x2="574" y1="571" y2="571"/><line style="stroke: #A80036; stroke-width: 1.5;" x1="405" x2="574" y1="579" y2="579"/><ellipse cx="415" cy="590" fill="#84BE84" rx="3" ry="3" style="stroke: #038048; stroke-width: 1.0;"/><text fill="#000000" font-family="sans-serif" font-size="11" lengthAdjust="spacingAndGlyphs" textLength="41" x="424" y="594.7589">Knight()</text><ellipse cx="415" cy="604.9819" fill="#84BE84" rx="3" ry="3" style="stroke: #038048; stroke-width: 1.0;"/><text fill="#000000" font-family="sans-serif" font-size="11" lengthAdjust="spacingAndGlyphs" textLength="102" x="424" y="609.7408">boolean movment()</text><ellipse cx="415" cy="619.9638" fill="#84BE84" rx="3" ry="3" style="stroke: #038048; stroke-width: 1.0;"/><text fill="#000000" font-family="sans-serif" font-size="11" lengthAdjust="spacingAndGlyphs" textLength="145" x="424" y="624.7227">boolean isCapturePossible()</text><!--MD5=[449cd079d44679d193659f94873ba755]
class Bishop--><rect fill="#FEFECE" filter="url(#f18u6go471cc7g)" height="77.9638" id="Bishop" style="stroke: #A80036; stroke-width: 1.5;" width="171" x="610" y="546.5"/><ellipse cx="672.25" cy="562.5" fill="#ADD1B2" rx="11" ry="11" style="stroke: #A80036; stroke-width: 1.0;"/><path d="M675.2188,568.1406 Q674.6406,568.4375 674,568.5781 Q673.3594,568.7344 672.6563,568.7344 Q670.1563,568.7344 668.8281,567.0938 Q667.5156,565.4375 667.5156,562.3125 Q667.5156,559.1875 668.8281,557.5313 Q670.1563,555.875 672.6563,555.875 Q673.3594,555.875 674,556.0313 Q674.6563,556.1875 675.2188,556.4844 L675.2188,559.2031 Q674.5938,558.625 674,558.3594 Q673.4063,558.0781 672.7813,558.0781 Q671.4375,558.0781 670.75,559.1563 Q670.0625,560.2188 670.0625,562.3125 Q670.0625,564.4063 670.75,565.4844 Q671.4375,566.5469 672.7813,566.5469 Q673.4063,566.5469 674,566.2813 Q674.5938,566 675.2188,565.4219 L675.2188,568.1406 Z "/><text fill="#000000" font-family="sans-serif" font-size="12" lengthAdjust="spacingAndGlyphs" textLength="38" x="692.75" y="567.156">Bishop</text><line style="stroke: #A80036; stroke-width: 1.5;" x1="611" x2="780" y1="578.5" y2="578.5"/><rect fill="none" height="6" style="stroke: #C82930; stroke-width: 1.0;" width="6" x="618" y="586.5"/><text fill="#000000" font-family="sans-serif" font-size="11" lengthAdjust="spacingAndGlyphs" textLength="96" x="630" y="594.2589">boolean movment</text><line style="stroke: #A80036; stroke-width: 1.5;" x1="611" x2="780" y1="601.4819" y2="601.4819"/><rect fill="#F24D5C" height="6" style="stroke: #C82930; stroke-width: 1.0;" width="6" x="618" y="609.4819"/><text fill="#000000" font-family="sans-serif" font-size="11" lengthAdjust="spacingAndGlyphs" textLength="145" x="630" y="617.2408">boolean isCapturePossible()</text><!--MD5=[b5524c1f1cf4f7aeecdc9b5af5b05d87]
class Queen--><rect fill="#FEFECE" filter="url(#f18u6go471cc7g)" height="92.9457" id="Queen" style="stroke: #A80036; stroke-width: 1.5;" width="171" x="816" y="539"/><ellipse cx="878.75" cy="555" fill="#ADD1B2" rx="11" ry="11" style="stroke: #A80036; stroke-width: 1.0;"/><path d="M881.7188,560.6406 Q881.1406,560.9375 880.5,561.0781 Q879.8594,561.2344 879.1563,561.2344 Q876.6563,561.2344 875.3281,559.5938 Q874.0156,557.9375 874.0156,554.8125 Q874.0156,551.6875 875.3281,550.0313 Q876.6563,548.375 879.1563,548.375 Q879.8594,548.375 880.5,548.5313 Q881.1563,548.6875 881.7188,548.9844 L881.7188,551.7031 Q881.0938,551.125 880.5,550.8594 Q879.9063,550.5781 879.2813,550.5781 Q877.9375,550.5781 877.25,551.6563 Q876.5625,552.7188 876.5625,554.8125 Q876.5625,556.9063 877.25,557.9844 Q877.9375,559.0469 879.2813,559.0469 Q879.9063,559.0469 880.5,558.7813 Q881.0938,558.5 881.7188,557.9219 L881.7188,560.6406 Z "/><text fill="#000000" font-family="sans-serif" font-size="12" lengthAdjust="spacingAndGlyphs" textLength="37" x="899.25" y="559.656">Queen</text><line style="stroke: #A80036; stroke-width: 1.5;" x1="817" x2="986" y1="571" y2="571"/><line style="stroke: #A80036; stroke-width: 1.5;" x1="817" x2="986" y1="579" y2="579"/><ellipse cx="827" cy="590" fill="#84BE84" rx="3" ry="3" style="stroke: #038048; stroke-width: 1.0;"/><text fill="#000000" font-family="sans-serif" font-size="11" lengthAdjust="spacingAndGlyphs" textLength="41" x="836" y="594.7589">Queen()</text><ellipse cx="827" cy="604.9819" fill="#84BE84" rx="3" ry="3" style="stroke: #038048; stroke-width: 1.0;"/><text fill="#000000" font-family="sans-serif" font-size="11" lengthAdjust="spacingAndGlyphs" textLength="102" x="836" y="609.7408">boolean movment()</text><ellipse cx="827" cy="619.9638" fill="#84BE84" rx="3" ry="3" style="stroke: #038048; stroke-width: 1.0;"/><text fill="#000000" font-family="sans-serif" font-size="11" lengthAdjust="spacingAndGlyphs" textLength="145" x="836" y="624.7227">boolean isCapturePossible()</text><!--MD5=[76412a1b87b0f1c748604a3142aab9ae]
class King--><rect fill="#FEFECE" filter="url(#f18u6go471cc7g)" height="92.9457" id="King" style="stroke: #A80036; stroke-width: 1.5;" width="171" x="1022" y="539"/><ellipse cx="1091.25" cy="555" fill="#ADD1B2" rx="11" ry="11" style="stroke: #A80036; stroke-width: 1.0;"/><path d="M1094.2188,560.6406 Q1093.6406,560.9375 1093,561.0781 Q1092.3594,561.2344 1091.6563,561.2344 Q1089.1563,561.2344 1087.8281,559.5938 Q1086.5156,557.9375 1086.5156,554.8125 Q1086.5156,551.6875 1087.8281,550.0313 Q1089.1563,548.375 1091.6563,548.375 Q1092.3594,548.375 1093,548.5313 Q1093.6563,548.6875 1094.2188,548.9844 L1094.2188,551.7031 Q1093.5938,551.125 1093,550.8594 Q1092.4063,550.5781 1091.7813,550.5781 Q1090.4375,550.5781 1089.75,551.6563 Q1089.0625,552.7188 1089.0625,554.8125 Q1089.0625,556.9063 1089.75,557.9844 Q1090.4375,559.0469 1091.7813,559.0469 Q1092.4063,559.0469 1093,558.7813 Q1093.5938,558.5 1094.2188,557.9219 L1094.2188,560.6406 Z "/><text fill="#000000" font-family="sans-serif" font-size="12" lengthAdjust="spacingAndGlyphs" textLength="24" x="1111.75" y="559.656">King</text><line style="stroke: #A80036; stroke-width: 1.5;" x1="1023" x2="1192" y1="571" y2="571"/><line style="stroke: #A80036; stroke-width: 1.5;" x1="1023" x2="1192" y1="579" y2="579"/><ellipse cx="1033" cy="590" fill="#84BE84" rx="3" ry="3" style="stroke: #038048; stroke-width: 1.0;"/><text fill="#000000" font-family="sans-serif" font-size="11" lengthAdjust="spacingAndGlyphs" textLength="30" x="1042" y="594.7589">King()</text><ellipse cx="1033" cy="604.9819" fill="#84BE84" rx="3" ry="3" style="stroke: #038048; stroke-width: 1.0;"/><text fill="#000000" font-family="sans-serif" font-size="11" lengthAdjust="spacingAndGlyphs" textLength="102" x="1042" y="609.7408">boolean movment()</text><ellipse cx="1033" cy="619.9638" fill="#84BE84" rx="3" ry="3" style="stroke: #038048; stroke-width: 1.0;"/><text fill="#000000" font-family="sans-serif" font-size="11" lengthAdjust="spacingAndGlyphs" textLength="145" x="1042" y="624.7227">boolean isCapturePossible()</text><!--MD5=[9f812a98cb9947e5b96a7c66f6bc972c]
reverse link Piece to Pawn--><path d="M465.78,360.12 C382.37,397.73 272.08,451.31 180.5,509 C174.76,512.62 168.95,516.51 163.19,520.55 " fill="none" id="Piece&lt;-Pawn" style="stroke: #A80036; stroke-width: 1.0;"/><polygon fill="none" points="463.11,353.64,484.23,351.86,468.83,366.42,463.11,353.64" style="stroke: #A80036; stroke-width: 1.0;"/><!--MD5=[f155965888366d3428fedfbd66dbdc67]
reverse link Piece to Rook--><path d="M469.3,417.04 C422.19,459.5 371.03,505.61 334.35,538.67 " fill="none" id="Piece&lt;-Rook" style="stroke: #A80036; stroke-width: 1.0;"/><polygon fill="none" points="464.88,411.6,484.43,403.41,474.26,422,464.88,411.6" style="stroke: #A80036; stroke-width: 1.0;"/><!--MD5=[0bba69bd4d15d8b23c124755577550ff]
reverse link Piece to Knight--><path d="M532.48,468.3 C522.91,494.15 513.75,518.92 506.37,538.9 " fill="none" id="Piece&lt;-Knight" style="stroke: #A80036; stroke-width: 1.0;"/><polygon fill="none" points="525.99,465.66,539.49,449.33,539.12,470.52,525.99,465.66" style="stroke: #A80036; stroke-width: 1.0;"/><!--MD5=[3a653eda681fe0f42514424c6a5b352b]
reverse link Piece to Bishop--><path d="M652.47,468.15 C663.27,497.35 673.56,525.17 681.37,546.29 " fill="none" id="Piece&lt;-Bishop" style="stroke: #A80036; stroke-width: 1.0;"/><polygon fill="none" points="645.88,470.52,645.51,449.33,659.01,465.66,645.88,470.52" style="stroke: #A80036; stroke-width: 1.0;"/><!--MD5=[88f2e2291555f21143e81e756510c9ea]
reverse link Piece to Queen--><path d="M715.41,447.06 C716.1,447.71 716.8,448.36 717.5,449 C720.32,451.6 786.97,500.57 839.25,538.9 " fill="none" id="Piece&lt;-Queen" style="stroke: #A80036; stroke-width: 1.0;"/><polygon fill="none" points="710.34,451.9,700.78,432.99,720.05,441.81,710.34,451.9" style="stroke: #A80036; stroke-width: 1.0;"/><!--MD5=[9fa21af85290b4f921ebc4dd17726164]
reverse link Piece to King--><path d="M718.51,447.96 C835.32,509.52 891.06,458.43 1004.5,509 C1021.81,516.72 1039.05,527.7 1054.33,538.91 " fill="none" id="Piece&lt;-King" style="stroke: #A80036; stroke-width: 1.0;"/><polygon fill="none" points="714.83,453.92,700.82,438.03,721.68,441.71,714.83,453.92" style="stroke: #A80036; stroke-width: 1.0;"/><!--MD5=[bbfa3183d1b39562a12868609e956e9b]
reverse link Jouable to Piece--><path d="M592.5,121.49 C592.5,133.88 592.5,147.26 592.5,160.95 " fill="none" id="Jouable&lt;-Piece" style="stroke: #A80036; stroke-width: 1.0;"/><polygon fill="none" points="585.5,121.08,592.5,101.08,599.5,121.08,585.5,121.08" style="stroke: #A80036; stroke-width: 1.0;"/><!--MD5=[f4e9f6965d2aed01c2ff74efc4def502]
reverse link Affichable to Echiquier--><path d="M822.97,98.54 C811.26,151.45 791.82,239.31 782.62,280.86 " fill="none" id="Affichable&lt;-Echiquier" style="stroke: #A80036; stroke-width: 1.0;"/><polygon fill="none" points="816.17,96.89,827.33,78.88,829.84,99.92,816.17,96.89" style="stroke: #A80036; stroke-width: 1.0;"/><!--MD5=[0c3933beb227d86746f4a5a5091c0f49]
reverse link Affichable to Joueur--><path d="M842.2,98.54 C854.12,151.45 873.92,239.31 883.29,280.86 " fill="none" id="Affichable&lt;-Joueur" style="stroke: #A80036; stroke-width: 1.0;"/><polygon fill="none" points="835.34,99.93,837.77,78.88,848.99,96.85,835.34,99.93" style="stroke: #A80036; stroke-width: 1.0;"/><!--MD5=[83054c3e32eb803b76f0a94bf23d973f]
@startuml

interface Jouable
interface Affichable

abstract class Piece
abstract class Case

class Echiquier
class Joueur

Piece <|- - Pawn
Piece <|- - Rook
Piece <|- - Knight
Piece <|- - Bishop
Piece <|- - Queen
Piece <|- - King

Jouable <|- - Piece
Affichable <|- - Echiquier
Affichable <|- - Joueur


class Piece{
	-String type
	-List<int> avance 
	-String Couleur
	-List<String> position
	-boolean jouable
	
	+Piece()
	+String getCouleur()
	+String getType()
	+String getPosition()
	+boolean isJouable()
	+setPosition(List<String> pos)
	+setJouable(boolean isJouable_)	
	+abstract boolean movment()
	+abstract boolean isCapturePossible()
	+canCapture()
	+isActif()
}
class Pawn{
	-boolean firstMouvment
	-boolean promotion
	
	+Pion()
	+boolean movment()
	+isCapturePossible()
	+promotion()
	+boolean priseEnPassant()	
}
class Rook{
	+Rook()
	+boolean isCapturePossible()
	+boolean movment()
}
class Knight{
	+Knight()
	+boolean movment()
	+boolean isCapturePossible()
}
class Bishop{
	-boolean movment
	-boolean isCapturePossible()
}
class Queen{
	+Queen()
	+boolean movment()
	+boolean isCapturePossible()
}
Class King{
	+King()
	+boolean movment()
	+boolean isCapturePossible()
}

class Jouable{
	+boolean movment()
	+boolean canCapture()
	+boolean isActif()
}

@enduml

PlantUML version 1.2020.02(Sun Mar 01 11:22:07 CET 2020)
(GPL source distribution)
Java Runtime: OpenJDK Runtime Environment
JVM: OpenJDK 64-Bit Server VM
Java Version: 17.0.13+11-LTS
Operating System: Linux
Default Encoding: UTF-8
Language: fr
Country: FR
--></g></svg>